<svg id="Capa_1" enable-background="new 0 0 512 512" height="512" viewBox="0 0 512 512" width="512" xmlns="http://www.w3.org/2000/svg"><g><circle cx="286" cy="91" r="10"/><circle cx="226" cy="91" r="10"/><path d="m316 261c-5.522 0-10 4.477-10 10v165c0 30.327 24.673 55 55 55s55-24.673 55-55c0-14.691-5.721-28.503-16.108-38.891-3.906-3.905-10.236-3.905-14.143 0-3.905 3.905-3.905 10.237 0 14.143 6.61 6.609 10.251 15.399 10.251 24.748 0 19.299-15.701 35-35 35s-35-15.701-35-35v-165c0-5.523-4.478-10-10-10z"/><path d="m126.251 397.109c-3.904-3.905-10.237-3.905-14.142 0-10.388 10.388-16.109 24.199-16.109 38.891 0 30.327 24.673 55 55 55s55-24.673 55-55v-165c0-5.523-4.477-10-10-10s-10 4.477-10 10v165c0 19.299-15.701 35-35 35s-35-15.701-35-35c0-9.349 3.641-18.139 10.251-24.749 3.905-3.905 3.906-10.236 0-14.142z"/><path d="m136 261c-5.523 0-10 4.477-10 10v60c0 11.028-8.972 20-20 20s-20-8.972-20-20c0-5.523-4.477-10-10-10s-10 4.477-10 10c0 22.056 17.944 40 40 40s40-17.944 40-40v-60c0-5.523-4.477-10-10-10z"/><path d="m376 261c-5.522 0-10 4.477-10 10v60c0 22.056 17.944 40 40 40s40-17.944 40-40c0-5.523-4.478-10-10-10s-10 4.477-10 10c0 11.028-8.972 20-20 20s-20-8.972-20-20v-60c0-5.523-4.478-10-10-10z"/><path d="m246 391c0 5.523 4.478 10 10 10s10-4.477 10-10v-120c0-5.523-4.478-10-10-10s-10 4.477-10 10z"/><circle cx="256" cy="211" r="10"/><path d="m472 21h-432c-22.056 0-40 17.944-40 40v150c0 5.523 4.477 10 10 10h201c5.523 0 10-4.477 10-10s-4.477-10-10-10h-131v-40h352v40h-131c-5.522 0-10 4.477-10 10s4.478 10 10 10h201c5.522 0 10-4.477 10-10v-150c0-22.056-17.944-40-40-40zm20 180h-40v-50c0-5.523-4.478-10-10-10h-372c-5.523 0-10 4.477-10 10v50h-40v-140c0-11.028 8.972-20 20-20h432c11.028 0 20 8.972 20 20z"/></g></svg>