<svg id="Capa_1" enable-background="new 0 0 512.006 512.006" height="512" viewBox="0 0 512.006 512.006" width="512" xmlns="http://www.w3.org/2000/svg"><g><path d="m415.203 36.745h-90.812c-4.143 0-7.5 3.358-7.5 7.5s3.357 7.5 7.5 7.5h90.812c4.143 0 7.5-3.358 7.5-7.5s-3.358-7.5-7.5-7.5z"/><path d="m415.203 66.585h-181.622c-4.143 0-7.5 3.358-7.5 7.5s3.357 7.5 7.5 7.5h181.622c4.143 0 7.5-3.358 7.5-7.5s-3.358-7.5-7.5-7.5z"/><path d="m415.203 96.425h-181.622c-4.143 0-7.5 3.358-7.5 7.5s3.357 7.5 7.5 7.5h181.622c4.143 0 7.5-3.358 7.5-7.5s-3.358-7.5-7.5-7.5z"/><path d="m415.203 357.06h-90.812c-4.143 0-7.5 3.358-7.5 7.5s3.357 7.5 7.5 7.5h90.812c4.143 0 7.5-3.358 7.5-7.5s-3.358-7.5-7.5-7.5z"/><path d="m415.203 386.9h-181.622c-4.143 0-7.5 3.358-7.5 7.5s3.357 7.5 7.5 7.5h181.622c4.143 0 7.5-3.358 7.5-7.5s-3.358-7.5-7.5-7.5z"/><path d="m415.203 416.741h-181.622c-4.143 0-7.5 3.358-7.5 7.5s3.357 7.5 7.5 7.5h181.622c4.143 0 7.5-3.358 7.5-7.5s-3.358-7.5-7.5-7.5z"/><path d="m327.289 277.557v-86.628c0-16.967-13.804-30.771-30.771-30.771h-217.806c-16.968 0-30.771 13.804-30.771 30.771v86.628c0 16.967 13.804 30.771 30.771 30.771h8.93c.09 0 .172.045.219.122l23.236 37.621c2.271 3.676 6.15 5.779 10.275 5.779 1.118 0 2.256-.155 3.383-.475 5.283-1.5 8.833-6.198 8.833-11.69v-31.356h162.931c16.966-.001 30.77-13.805 30.77-30.772zm-195.91 15.771c-7.053 0-12.791 5.738-12.791 12.791v23.536l-17.966-29.087c-2.8-4.533-7.652-7.24-12.98-7.24h-8.93c-8.696 0-15.771-7.075-15.771-15.771v-86.628c0-8.696 7.075-15.771 15.771-15.771h217.807c8.696 0 15.771 7.075 15.771 15.771v86.628c0 8.696-7.074 15.771-15.771 15.771z"/><path d="m96.804 211.902h90.81c4.143 0 7.5-3.358 7.5-7.5s-3.357-7.5-7.5-7.5h-90.81c-4.143 0-7.5 3.358-7.5 7.5s3.358 7.5 7.5 7.5z"/><path d="m278.426 226.743h-181.622c-4.143 0-7.5 3.358-7.5 7.5s3.357 7.5 7.5 7.5h181.621c4.143 0 7.5-3.358 7.5-7.5s-3.357-7.5-7.499-7.5z"/><path d="m278.426 256.583h-181.622c-4.143 0-7.5 3.358-7.5 7.5s3.357 7.5 7.5 7.5h181.621c4.143 0 7.5-3.358 7.5-7.5s-3.357-7.5-7.499-7.5z"/><path d="m433.295 320.315h-96.006c-4.143 0-7.5 3.358-7.5 7.5s3.357 7.5 7.5 7.5h96.006c8.696 0 15.771 7.075 15.771 15.771v86.628c0 8.696-7.075 15.771-15.771 15.771h-8.93c-5.328 0-10.181 2.707-12.98 7.239l-17.965 29.086v-23.534c0-7.053-5.738-12.791-12.792-12.791h-165.14c-8.696 0-15.771-7.075-15.771-15.771v-86.627c0-8.696 7.075-15.771 15.771-15.771h86.8c4.143 0 7.5-3.358 7.5-7.5s-3.357-7.5-7.5-7.5h-86.8c-16.968 0-30.771 13.804-30.771 30.771v86.627c0 16.967 13.804 30.771 30.771 30.771h162.932v31.356c0 5.492 3.55 10.19 8.833 11.69 1.127.32 2.264.475 3.382.475 4.124 0 8.006-2.104 10.275-5.779l23.236-37.621c.047-.076.129-.122.219-.122h8.93c16.968 0 30.771-13.804 30.771-30.771v-86.628c0-16.966-13.804-30.77-30.771-30.77z"/><path d="m433.295 0h-217.806c-16.968 0-30.771 13.804-30.771 30.771v86.627c0 16.967 13.804 30.771 30.771 30.771h162.931v31.356c0 5.492 3.55 10.19 8.833 11.69 1.127.32 2.264.475 3.382.475 4.124 0 8.006-2.104 10.275-5.779l23.236-37.621c.047-.076.129-.122.219-.122h8.93c16.968 0 30.771-13.804 30.771-30.771v-25.812c0-4.142-3.357-7.5-7.5-7.5s-7.5 3.358-7.5 7.5v25.814c0 8.696-7.075 15.771-15.771 15.771h-8.93c-5.328 0-10.181 2.707-12.98 7.239l-17.965 29.086v-23.534c0-7.053-5.738-12.791-12.792-12.791h-165.14c-8.696 0-15.771-7.075-15.771-15.771v-86.628c0-8.696 7.075-15.771 15.771-15.771h217.806c8.696 0 15.771 7.075 15.771 15.771v25.814c0 4.142 3.357 7.5 7.5 7.5s7.5-3.358 7.5-7.5v-25.814c.001-16.967-13.803-30.771-30.77-30.771z"/></g></svg>