<?xml version="1.0"?>
<svg xmlns="http://www.w3.org/2000/svg" viewBox="0 0 512 512" width="512" height="512"><g id="outline"><path d="M153.132,344.08l-56-8A8,8,0,0,0,88,344v24H80a24,24,0,1,0,24,24V353.224l40,5.714V376h-8a24,24,0,1,0,24,24V352A8,8,0,0,0,153.132,344.08ZM88,392a8,8,0,1,1-8-8h8Zm56,8a8,8,0,1,1-8-8h8Z"/><path d="M473.94,240.239,448,233.754v-7.508l22.06,5.515a8,8,0,0,0,3.88-15.522l-32-8A8,8,0,0,0,432,216v32h-8a24,24,0,1,0,24,24V250.246l22.06,5.515a8,8,0,0,0,3.88-15.522ZM432,272a8,8,0,1,1-8-8h8Z"/><path d="M392,72V40a7.994,7.994,0,0,0-.845-3.578l-8-16A8,8,0,0,0,376,16H352a8,8,0,0,0-8,8V38.111l-7.155,14.311a8,8,0,0,0,0,7.156l6.772,13.545-6.552,32.756L296.35,119.45l-13.738-5.87-7.08-10.619A31.9,31.9,0,0,0,285.277,80V43.777a27.777,27.777,0,0,0-52.622-12.422l-.386.772a26.9,26.9,0,0,0-16.391,45.788l5.6,5.6a31.892,31.892,0,0,0,8.224,18.1l-4.023,12.068s-20.863,7-21.1,7.116c-.121.057-72.458,40.216-72.458,40.216a8,8,0,0,0-3.96,5.424l-16,80A8.026,8.026,0,0,0,112,248v24a8,8,0,0,0,6.06,7.761l32,8a7.992,7.992,0,0,0,9.095-4.183l8-16a8,8,0,0,0,0-7.156l-6.608-13.216,14.277-49.971,31.1-18.662,8.086,10.781A50.235,50.235,0,0,1,224,219.308V240a8,8,0,0,0,8,8h8v16.408a45.671,45.671,0,0,0,8.652,26.847l22.47,67.41L233.49,411.35a7.986,7.986,0,0,0-.541,8.386l-14.606,14.607a8,8,0,0,0-1.771,8.628l16,40a8,8,0,0,0,3.85,4.184l16,8A7.994,7.994,0,0,0,256,496h8a8,8,0,0,0,5.657-2.343l4.576-4.576,9.658,5.782A7.993,7.993,0,0,0,288,496h32a8,8,0,0,0,7.245-11.392l-16.71-35.7,46.609-63.5A55.631,55.631,0,0,0,368,352.274V349.3a56.02,56.02,0,0,0-7.98-28.812L320,253.784V220.845a102.889,102.889,0,0,0-12.31-48.9l71.281-28.512a8,8,0,0,0,4.967-6.436S392,72.332,392,72Zm-88,61.767,16-5.334v21.351l-16,6.4Zm-37.261-15.152a22.233,22.233,0,0,1-25.515-.988L243.6,110.5a31.942,31.942,0,0,0,18,.4ZM269.277,80a16,16,0,0,1-31.7,3.02L256.591,64h12.686ZM224.561,55.45A10.879,10.879,0,0,1,234.9,48h2.381a8,8,0,0,0,7.156-4.423l2.533-5.066a11.777,11.777,0,0,1,22.311,5.266V48h-16a8,8,0,0,0-5.657,2.343L229.277,68.687,227.191,66.6A10.836,10.836,0,0,1,224.561,55.45ZM200,141.6v21.874l-12.691,7.615L178.566,153.5Zm-39.692,48.2-16,56a8,8,0,0,0,.537,5.776L151.056,264l-3.341,6.683L128,265.754V248.792l15.119-75.6,21.446-11.914,8.981,18.061-9.662,5.8A8,8,0,0,0,160.308,189.8Zm66.507-10.048L216,165.333V133.766l13.972-4.658a38.24,38.24,0,0,0,49.031.329l9,3.844V168a8.005,8.005,0,0,0,1.344,4.438A86.994,86.994,0,0,1,304,220.845V232H240V219.308A66.34,66.34,0,0,0,226.815,179.754Zm59.695,184.9a8.007,8.007,0,0,0,1.08-7.18l-13.235-39.7,35.49,35.4-47.772,76.657L250.116,415.6ZM257.889,480l-11.591-5.8-12.911-32.278,9.756-9.755,10.05,11.956a7.963,7.963,0,0,0,6.486,11.839l-5.7,12.769a8,8,0,0,0,3.194,10.127l1.9,1.137Zm32.323,0-18.735-11.218L277.188,456h19l11.235,24ZM346.3,328.716A40.016,40.016,0,0,1,352,349.3v2.979a39.735,39.735,0,0,1-7.755,23.669L297.226,440h-22.64l52.2-83.769a8,8,0,0,0-1.139-9.895l-61-60.857A29.819,29.819,0,0,1,256,264.408V248h48v8a8.009,8.009,0,0,0,1.14,4.116ZM376,71.5l-7.353,58.823L336,143.384V123.1l10.529-3.51a8,8,0,0,0,5.316-6.021l8-40a8,8,0,0,0-.69-5.147L352.944,56l6.211-12.422A7.994,7.994,0,0,0,360,40V32h11.056L376,41.889Z"/><path d="M221.657,298.343l-4.686-4.687A30.423,30.423,0,0,1,208,272a8,8,0,0,0-16,0,46.325,46.325,0,0,0,13.656,32.971l4.687,4.686a8,8,0,1,0,11.314-11.314Z"/><path d="M101.471,175.59a7.994,7.994,0,0,0,10.119-5.061l2.343-7.028a34.952,34.952,0,0,1,17.644-20.346,8,8,0,0,0-7.154-14.31,50.847,50.847,0,0,0-25.67,29.6l-2.343,7.03A8,8,0,0,0,101.471,175.59Z"/><path d="M152.006,132a7.973,7.973,0,0,0,3.572-.847l8-4a8,8,0,1,0-7.156-14.31l-8,4A8,8,0,0,0,152.006,132Z"/><path d="M410.314,154.356l5.276-15.826a8,8,0,0,0-15.18-5.06L395.135,149.3a10.555,10.555,0,0,1-6.106,6.475,8,8,0,1,0,5.942,14.856A26.525,26.525,0,0,0,410.314,154.356Z"/><path d="M365.028,165.372l-8,3.2a8,8,0,1,0,5.944,14.856l8-3.2a8,8,0,0,0-5.944-14.856Z"/><path d="M200,248a8,8,0,0,0,8-8v-8a8,8,0,0,0-16,0v8A8,8,0,0,0,200,248Z"/></g></svg>
