<svg height="512" viewBox="0 0 44 60" width="512" xmlns="http://www.w3.org/2000/svg"><g id="Page-1" fill="none" fill-rule="evenodd"><g id="001---Phone-Call" fill="rgb(0,0,0)" fill-rule="nonzero"><path id="Shape" d="m4 29.5v26.5c0 2.209139 1.790861 4 4 4h28c2.209139 0 4-1.790861 4-4v-7.827l3.115-3.114c1.1782393-1.1814477 1.1782393-3.0935523 0-4.275l-3.115-3.115v-33.669c0-2.209139-1.790861-4-4-4h-28c-2.209139 0-4 1.790861-4 4v5.827l-1.255 1.255c-.37204325.371513-.64057593.8337753-.779 1.341l-1.859 6.819c-.14775916.5411834-.14221975 1.1127818.016 1.651.94027413 3.0149394 2.24207754 5.9049631 3.877 8.607zm7.663 9.84c5.1215173 5.2845753 11.4509041 9.2449464 18.443 11.54.5382034.1580248 1.1096568.163909 1.651.017l6.243-1.706v1.809c0 1.1045695-.8954305 2-2 2h-28c-1.1045695 0-2-.8954305-2-2v-18.409c1.68710475 2.4096796 3.58201114 4.6669705 5.663 6.746zm24.337 18.66h-28c-1.1045695 0-2-.8954305-2-2v-1.556c.60534654.3599241 1.29574677.5518554 2 .556h28c.7042532-.0041446 1.3946535-.1960759 2-.556v1.556c0 1.1045695-.8954305 2-2 2zm-6.308-56-1.282 1.368c-.378896.40269492-.907076.63133176-1.46.632h-9.9c-.5527743.00000995-1.0809024-.22876112-1.459-.632l-1.282-1.368zm-21.692 0h3.567l2.565 2.735c.7567936.80574999 1.8125738 1.2634477 2.918 1.265h9.9c1.1054015-.00208587 2.1611681-.45925919 2.919-1.264l2.564-2.736h3.567c1.1045695 0 2 .8954305 2 2v16.65c-1.02038-1.7963809-2.2813706-3.4449544-3.748-4.9-4.952-4.95-9.902-5.71-10.11-5.74-.5467619-.07842443-1.0535756.3012381-1.132.848s.3012381 1.0535756.848 1.132c3.4405958.7938 6.566815 2.5943351 8.98 5.172 2.5441525 2.4138817 4.336697 5.5114209 5.162 8.92v9.587l-2.037-2.037c-1.1959035-1.142738-3.0790965-1.142738-4.275 0l-1.424 1.426-.007.005v.006l-3.9 3.906c-3.4252403-.929899-6.531596-2.7773231-8.984-5.343-2.5667453-2.4501391-4.4126473-5.557079-5.337-8.983l3.905-3.906 1.43-1.43c1.1798913-1.1807643 1.1798913-3.0942357 0-4.275l-7.155-7.153c-1.16043257-1.15511136-3.02956929-1.17639186-4.216-.048v-3.837c0-1.1045695.8954305-2 2-2zm-5.964 17.769 1.86-6.82c.04686734-.1712656.13750525-.3273834.263-.453l1.059-1.059 5.014 5.014c.3923789.3789722 1.0160848.3735524 1.4018186-.0121814s.3911536-1.0094397.0121814-1.4018186l-5.014-5.014.723-.724c.39999179-.39857783 1.04700821-.39857783 1.447 0l7.152 7.152c.3985778.3999918.3985778 1.0470082 0 1.447l-.724.723-.723-.723c-.3923789-.3789722-1.0160848-.3735524-1.4018186.0121814s-.3911536 1.0094397-.0121814 1.4018186l.723.723-3.2 3.2c-.4907441.4907747-.6940599 1.1997346-.538 1.876 1.0175354 3.7849713 3.0488651 7.2204251 5.875 9.936 2.7155749 2.8261349 6.1510287 4.8574646 9.936 5.875.6759596.1560866 1.3846374-.0472567 1.875-.538l3.2-3.2.723.723c.3938446.3693233 1.0097448.3593222 1.3913906-.0225937s.3912112-.9978231.0216094-1.3914063l-.723-.723.723-.724c.4047365-.3869241 1.0422635-.3869241 1.447 0l7.153 7.154c.3985778.3999918.3985778 1.0470082 0 1.447l-.724.723-5.014-5.014c-.3923789-.3789722-1.0160848-.3735524-1.4018186.0121814s-.3911536 1.0094397-.0121814 1.4018186l5.014 5.014-1.062 1.057c-.1258397.1257177-.2823406.2163779-.454.263l-6.82 1.86c-.184779.0491688-.3795006.0467477-.563-.007-6.6713654-2.1971394-12.7082117-5.9839821-17.59-11.034-5.04892127-4.882331-8.83441357-10.9195563-11.03-17.591-.05478862-.183342-.05721326-.3783524-.007-.563z"/><path id="Shape" d="m21.854 17.989c2.4635809.5833855 4.7021724 1.8759905 6.439 3.718 1.8411112 1.7357641 3.133335 3.9729069 3.717 6.435.0507317.353693.2863027.6534537.6179756.7863652s.7090588.0787814.99-.142c.2809413-.2207814.4227561-.5746723.3720244-.9283652-.6296109-2.8968385-2.1230072-5.5346024-4.283-7.565-2.0303976-2.1599928-4.6681615-3.6533891-7.565-4.283-.5426778-.0721152-1.0424671.3055327-1.1213057.8472746-.0788387.5417419.292583 1.0461754.8333057 1.1317254z"/><path id="Shape" d="m20.851 23.989c1.2473872.3051294 2.3796826.9650562 3.26 1.9.933382.878738 1.5931454 2.0083222 1.9 3.253.0784244.5467619.5852381.9264244 1.132.848s.9264244-.5852381.848-1.132c-.3595613-1.676645-1.2190347-3.2048688-2.465-4.383-1.1781312-1.2459653-2.706355-2.1054387-4.383-2.465-.3535143-.0519821-.7079071.088582-.9296821.3687433s-.2772393.6573566-.1455.9895.4306678.5687746.7841821.6207567z"/></g></g></svg>