<svg height="512" viewBox="0 0 60 60" width="512" xmlns="http://www.w3.org/2000/svg"><g id="Page-1" fill="none" fill-rule="evenodd"><g id="087---Person-With-Speech-Bubble" fill="rgb(0,0,0)" fill-rule="nonzero"><path id="Shape" d="m3 22h10.344l6.275 5.491c.3687973.3268451.8442142.5078378 1.337.509.2916325-.0007395.5797371-.0638156.845-.185.7327966-.3251101 1.2034927-1.0533347 1.199-1.855v-3.96h1c1.6568542 0 3-1.3431458 3-3v-16c0-1.65685425-1.3431458-3-3-3h-21c-1.65685425 0-3 1.34314575-3 3v16c0 1.6568542 1.34314575 3 3 3zm-1-19c0-.55228475.44771525-1 1-1h21c.5522847 0 1 .44771525 1 1v16c0 .5522847-.4477153 1-1 1h-3c-.3572656-.0021436-.6885362.1864746-.8690254.4948038-.1804892.3083293-.1827764.6895272-.006 1 .1767764.3104729.5057598.5030526.8630254.5051962l-.05 3.989-4.557-3.989h.619c.5522847 0 1-.4477153 1-1s-.4477153-1-1-1h-3c-.044888.0060109-.0893215.0150312-.133.027-.0481728-.0130332-.09734-.0220639-.147-.027h-10.72c-.55228475 0-1-.4477153-1-1z"/><path id="Shape" d="m15.769 14.973c-.1819163.5423774-.40386 1.0704963-.664 1.58-.2468713.4942949-.0462949 1.0951287.448 1.342s1.0951287.0462949 1.342-.448c.6125648-1.0558854.9895153-2.2317663 1.105-3.447 0-.5522847-.4477153-1-1-1h-1c-.5073737-.0000989-.9344101.3797821-.9934107.8837137s.268736.9721819.7624107 1.0892863z"/><path id="Shape" d="m22 13h-1c-.5073737-.0000989-.9344101.3797821-.9934107.8837137s.268736.9721819.7624107 1.0892863c-.1819163.5423774-.40386 1.0704963-.664 1.58-.2468713.4942948-.0462948 1.0951287.448 1.342.4942949.2468713 1.0951287.0462948 1.342-.448.6125648-1.0558854.9895153-2.2317663 1.105-3.447 0-.5522847-.4477153-1-1-1z"/><path id="Shape" d="m10 9h1c.5073737.00009892.9344101-.3797821.9934107-.8837137s-.268736-.97218188-.7624107-1.0892863c.1819163-.5423774.40386-1.07049634.664-1.58.2468713-.49429485.0462949-1.09512872-.448-1.342s-1.0951287-.04629485-1.342.448c-.6125648 1.05588545-.98951528 2.23176628-1.105 3.447 0 .55228475.44771525 1 1 1z"/><path id="Shape" d="m5 9h1c.50737375.00009892.9344101-.3797821.9934107-.8837137.05900061-.5039316-.26873602-.97218188-.7624107-1.0892863.18353554-.54251835.40715186-1.0706406.669-1.58.24687128-.49429485.04629485-1.09512872-.448-1.342s-1.09512872-.04629485-1.342.448c-.61431573 1.05547869-.99297936 2.23138278-1.11 3.447 0 .26521649.10535684.5195704.29289322.70710678s.44189029.29289322.70710678.29289322z"/><path id="Shape" d="m5 13h6c.5522847 0 1-.4477153 1-1s-.4477153-1-1-1h-6c-.55228475 0-1 .4477153-1 1s.44771525 1 1 1z"/><path id="Shape" d="m5 17h4c.55228475 0 1-.4477153 1-1s-.44771525-1-1-1h-4c-.55228475 0-1 .4477153-1 1s.44771525 1 1 1z"/><path id="Shape" d="m16 6h6c.5522847 0 1-.44771525 1-1s-.4477153-1-1-1h-6c-.5522847 0-1 .44771525-1 1s.4477153 1 1 1z"/><path id="Shape" d="m16 10h4c.5522847 0 1-.44771525 1-1s-.4477153-1-1-1h-4c-.5522847 0-1 .44771525-1 1s.4477153 1 1 1z"/><path id="Shape" d="m52 44h-2.619c-1.3827118-1.2161092-1.8549786-3.1683587-1.181-4.882 2.6958655-1.1876747 4.8194733-3.3837924 5.916-6.118 1.9328738-.0568229 3.5483473-1.4881956 3.8374888-3.4001651.2891414-1.9119694-.8308486-3.7570181-2.6604888-4.3828349.681-2.491 1.708-8.381-2.778-11.072-2.36-1.414-5.955-1.259-9.759-1.1-4.624.2-9.412.406-10.861-2.494-.1987834-.3986939-.6373345-.61780756-1.0755122-.5373591-.4381777.0804485-.7702935.441055-.8144878.8843591-.037.37-.716 7.717 3 11.4v2.827c-1.9347997.4923775-3.2102843 2.3360189-2.9888158 4.3201653.2214685 1.9841465 1.8720687 3.5011811 3.8678158 3.5548347 1.0962882 2.7341264 3.2200137 4.9300068 5.916 6.117.6741416 1.7139446.2018815 3.666566-1.181 4.883h-2.619c-4.4162219.0049599-7.9950401 3.5837781-8 8v5c0 1.6568542 1.3431458 3 3 3h26c1.6568542 0 3-1.3431458 3-3v-5c-.0049599-4.4162219-3.5837781-7.9950401-8-8zm-16.491-12.374c-.1352616-.408984-.5172295-.6853869-.948-.686-.0737167-.000085-.147199.0083034-.219.025-.1124324.0237866-.2270802.0355195-.342.035-1.1045695 0-2-.8954305-2-2s.8954305-2 2-2c.5522847 0 1-.4477153 1-1v-2.318c.2233959.1000788.4516844.1888576.684.266.5246705.174522 1.091478-.1093295 1.266-.634.1745219-.5246705-.1093295-1.091478-.634-1.266-.5903535-.1966145-1.1370734-.5056302-1.61-.91-.0306924-.0316016-.0641601-.0603838-.1-.086-2.012-1.809-2.539-5.154-2.644-7.465 2.623 1.808 6.8 1.629 10.879 1.454 3.345-.143 6.8-.294 8.643.812 4.222 2.534 1.605 9.72 1.578 9.793-.1164711.3077054-.0741326.6530138.1132267.9234663.1873593.2704526.4957638.4314405.8247733.4305337 1.1045695 0 2 .8954305 2 2s-.8954305 2-2 2c-.1149198.0005195-.2295676-.0112134-.342-.035-.500997-.1118544-1.0053152.1737964-1.167.661-1.0984742 3.7759651-4.5584998 6.3728648-8.491 6.3728648s-7.3925258-2.5968997-8.491-6.3728648zm6.469 8.17c1.3342795.2719944 2.7097205.2719944 4.044 0-.3767663 2.0811175.356675 4.2083247 1.936 5.615-.1997614 2.0362778-1.9119472 3.5887153-3.958 3.5887153s-3.7582386-1.5524375-3.958-3.5887153c1.5779792-1.4058655 2.311292-3.5311846 1.936-5.611zm16.022 17.204c0 .5522847-.4477153 1-1 1h-3v-6c0-.5522847-.4477153-1-1-1s-1 .4477153-1 1v6h-16v-6c0-.5522847-.4477153-1-1-1s-1 .4477153-1 1v6h-3c-.5522847 0-1-.4477153-1-1v-5c.0033074-3.3123376 2.6876624-5.9966926 6-6h2.083c.4856527 2.8893814 2.9870881 5.0054594 5.917 5.0054594s5.4313473-2.116078 5.917-5.0054594h2.083c3.3123376.0033074 5.9966926 2.6876624 6 6z"/></g></g></svg>